<mxfile host="app.diagrams.net" modified="2022-05-22T22:10:46.656Z" agent="5.0 (Windows NT 10.0; Win64; x64) AppleWebKit/537.36 (KHTML, like Gecko) Chrome/101.0.0.0 Safari/537.36" etag="n-wuMUPyfHqDLr4bVae9" version="18.0.7" type="github">
  <diagram id="5eFzA1hP7uBrlxcpolnb" name="Page-1">
    <mxGraphModel dx="1278" dy="539" grid="1" gridSize="10" guides="1" tooltips="1" connect="1" arrows="1" fold="1" page="1" pageScale="1" pageWidth="827" pageHeight="1169" math="0" shadow="0">
      <root>
        <mxCell id="0" />
        <mxCell id="1" parent="0" />
        <mxCell id="9jaSXbaH8BDlGmqXHL3b-1" value="Restaurante" style="shape=umlActor;verticalLabelPosition=bottom;verticalAlign=top;html=1;" vertex="1" parent="1">
          <mxGeometry x="940" y="415" width="30" height="60" as="geometry" />
        </mxCell>
        <mxCell id="9jaSXbaH8BDlGmqXHL3b-2" value="Sistema Restaurante" style="shape=umlFrame;whiteSpace=wrap;html=1;width=520;height=33;" vertex="1" parent="1">
          <mxGeometry x="540" y="290" width="360" height="240" as="geometry" />
        </mxCell>
        <mxCell id="9jaSXbaH8BDlGmqXHL3b-3" value="Karen Gonzaga Rivas" style="shape=note;whiteSpace=wrap;html=1;backgroundOutline=1;darkOpacity=0.05;" vertex="1" parent="1">
          <mxGeometry x="460" y="260" width="500" height="20" as="geometry" />
        </mxCell>
        <mxCell id="9jaSXbaH8BDlGmqXHL3b-4" value="Cliente" style="shape=umlActor;verticalLabelPosition=bottom;verticalAlign=top;html=1;" vertex="1" parent="1">
          <mxGeometry x="470" y="370" width="30" height="60" as="geometry" />
        </mxCell>
        <mxCell id="9jaSXbaH8BDlGmqXHL3b-5" value="&lt;div style=&quot;text-align: justify;&quot;&gt;&lt;span style=&quot;background-color: initial;&quot;&gt;Buscar comida&lt;/span&gt;&lt;/div&gt;" style="ellipse;whiteSpace=wrap;html=1;verticalAlign=top;" vertex="1" parent="1">
          <mxGeometry x="610" y="340" width="120" height="30" as="geometry" />
        </mxCell>
        <mxCell id="9jaSXbaH8BDlGmqXHL3b-6" value="" style="endArrow=none;html=1;rounded=0;shadow=0;entryX=0;entryY=0.5;entryDx=0;entryDy=0;" edge="1" parent="1" source="9jaSXbaH8BDlGmqXHL3b-4" target="9jaSXbaH8BDlGmqXHL3b-5">
          <mxGeometry width="50" height="50" relative="1" as="geometry">
            <mxPoint x="1050" y="470" as="sourcePoint" />
            <mxPoint x="1100" y="420" as="targetPoint" />
          </mxGeometry>
        </mxCell>
        <mxCell id="9jaSXbaH8BDlGmqXHL3b-7" value="Login" style="ellipse;whiteSpace=wrap;html=1;verticalAlign=top;" vertex="1" parent="1">
          <mxGeometry x="610" y="385" width="120" height="30" as="geometry" />
        </mxCell>
        <mxCell id="9jaSXbaH8BDlGmqXHL3b-8" value="" style="endArrow=none;html=1;rounded=0;shadow=0;entryX=0;entryY=0.5;entryDx=0;entryDy=0;" edge="1" parent="1" source="9jaSXbaH8BDlGmqXHL3b-4" target="9jaSXbaH8BDlGmqXHL3b-7">
          <mxGeometry width="50" height="50" relative="1" as="geometry">
            <mxPoint x="660" y="470" as="sourcePoint" />
            <mxPoint x="710" y="420" as="targetPoint" />
          </mxGeometry>
        </mxCell>
        <mxCell id="9jaSXbaH8BDlGmqXHL3b-9" value="Realizar pedido" style="ellipse;whiteSpace=wrap;html=1;verticalAlign=top;" vertex="1" parent="1">
          <mxGeometry x="610" y="470" width="120" height="30" as="geometry" />
        </mxCell>
        <mxCell id="9jaSXbaH8BDlGmqXHL3b-10" value="" style="endArrow=none;html=1;rounded=0;shadow=0;entryX=0;entryY=0.5;entryDx=0;entryDy=0;" edge="1" parent="1" source="9jaSXbaH8BDlGmqXHL3b-4" target="9jaSXbaH8BDlGmqXHL3b-9">
          <mxGeometry width="50" height="50" relative="1" as="geometry">
            <mxPoint x="510" y="340" as="sourcePoint" />
            <mxPoint x="640" y="600" as="targetPoint" />
          </mxGeometry>
        </mxCell>
        <mxCell id="9jaSXbaH8BDlGmqXHL3b-11" value="Visualizar pedidos" style="ellipse;whiteSpace=wrap;html=1;verticalAlign=top;" vertex="1" parent="1">
          <mxGeometry x="770" y="470" width="120" height="30" as="geometry" />
        </mxCell>
        <mxCell id="9jaSXbaH8BDlGmqXHL3b-12" value="" style="endArrow=none;html=1;rounded=0;shadow=0;exitX=1;exitY=0.5;exitDx=0;exitDy=0;entryX=0.333;entryY=0.667;entryDx=0;entryDy=0;entryPerimeter=0;" edge="1" parent="1" source="9jaSXbaH8BDlGmqXHL3b-11" target="9jaSXbaH8BDlGmqXHL3b-1">
          <mxGeometry width="50" height="50" relative="1" as="geometry">
            <mxPoint x="1100" y="460" as="sourcePoint" />
            <mxPoint x="1150" y="410" as="targetPoint" />
          </mxGeometry>
        </mxCell>
        <mxCell id="9jaSXbaH8BDlGmqXHL3b-13" value="" style="endArrow=none;html=1;rounded=0;shadow=0;exitX=1;exitY=0.5;exitDx=0;exitDy=0;entryX=0;entryY=0.5;entryDx=0;entryDy=0;" edge="1" parent="1" source="9jaSXbaH8BDlGmqXHL3b-9" target="9jaSXbaH8BDlGmqXHL3b-11">
          <mxGeometry width="50" height="50" relative="1" as="geometry">
            <mxPoint x="760" y="520" as="sourcePoint" />
            <mxPoint x="810" y="470" as="targetPoint" />
          </mxGeometry>
        </mxCell>
        <mxCell id="9jaSXbaH8BDlGmqXHL3b-14" style="edgeStyle=none;rounded=0;orthogonalLoop=1;jettySize=auto;html=1;exitX=0.5;exitY=0;exitDx=0;exitDy=0;shadow=0;" edge="1" parent="1">
          <mxGeometry relative="1" as="geometry">
            <mxPoint x="670" y="540" as="sourcePoint" />
            <mxPoint x="670" y="540" as="targetPoint" />
          </mxGeometry>
        </mxCell>
        <mxCell id="9jaSXbaH8BDlGmqXHL3b-15" value="&lt;span style=&quot;color: rgb(0, 0, 0); font-family: Helvetica; font-size: 11px; font-style: normal; font-variant-ligatures: normal; font-variant-caps: normal; font-weight: 400; letter-spacing: normal; orphans: 2; text-align: center; text-indent: 0px; text-transform: none; widows: 2; word-spacing: 0px; -webkit-text-stroke-width: 0px; background-color: rgb(255, 255, 255); text-decoration-thickness: initial; text-decoration-style: initial; text-decoration-color: initial; float: none; display: inline !important;&quot;&gt;&amp;lt;&amp;lt;include&amp;gt;&amp;gt;&lt;/span&gt;" style="endArrow=open;endSize=12;dashed=1;html=1;rounded=0;shadow=0;entryX=0.5;entryY=1;entryDx=0;entryDy=0;entryPerimeter=0;" edge="1" parent="1" source="9jaSXbaH8BDlGmqXHL3b-9" target="9jaSXbaH8BDlGmqXHL3b-7">
          <mxGeometry x="-0.014" y="-1" width="160" relative="1" as="geometry">
            <mxPoint x="730" y="640" as="sourcePoint" />
            <mxPoint x="1080" y="680" as="targetPoint" />
            <mxPoint as="offset" />
          </mxGeometry>
        </mxCell>
      </root>
    </mxGraphModel>
  </diagram>
</mxfile>
